<?xml version="1.0" encoding="iso-8859-1"?>
<!-- Generator: Adobe Illustrator 21.0.0, SVG Export Plug-In . SVG Version: 6.00 Build 0)  -->
<svg version="1.1" id="Capa_1" xmlns="http://www.w3.org/2000/svg" xmlns:xlink="http://www.w3.org/1999/xlink" x="0px" y="0px"
	 viewBox="0 0 512 512" style="enable-background:new 0 0 512 512;" xml:space="preserve">
<g>
	<g>
		<path d="M449.059,420.391c4.159,0,7.529-3.371,7.529-7.529v-21.285c0-51.044-43.672-69.584-45.531-70.349
			c-0.048-0.02-0.095-0.039-0.144-0.057l-105.678-40.926v-25.607c8.197-6.108,15.195-13.733,20.591-22.45
			c22.986,0,36.411-16.914,36.411-34.493v-16.772c21.673-3.603,38.253-22.473,38.253-45.152c0-22.91-16.916-41.942-38.913-45.266
			c-2.443-22.256-12.231-43.351-27.75-59.611C317.848,14.151,296.477,3.204,273.65,0.07c-4.123-0.562-7.918,2.316-8.484,6.435
			c-0.565,4.12,2.316,7.918,6.435,8.484c35.828,4.92,64.918,32.031,73.183,66.534h-7.962c-7.709,0-13.982,6.271-13.982,13.981v7.874
			c-4.303-4.588-7.829-8.352-12.205-13.056c-4.765-5.122-12.476-6.062-18.331-2.236c-29.685,19.393-64.473,29.581-103.262,27.679
			V95.503c0-7.71-6.272-13.981-13.982-13.981h-7.993c8.043-34.237,35.997-60.715,71.585-66.288c4.109-0.643,6.918-4.495,6.274-8.603
			c-0.644-4.108-4.492-6.921-8.603-6.274c-45.934,7.193-80.999,44.105-86.019,90.148c-21.996,3.326-38.911,22.356-38.911,45.266
			c0,23.011,17.068,42.104,39.206,45.303c2.027,5.226,7.094,8.947,13.027,8.947h10.364c0.089,25.935,12.357,49.63,32.656,64.57
			v25.656l-105.563,40.925c-0.047,0.018-0.094,0.037-0.142,0.056c-1.859,0.765-45.531,19.305-45.531,70.349v103.388
			C55.413,504.358,63.056,512,72.449,512c2.949,0,361.509,0,367.185,0c9.348,0,16.953-7.605,16.953-16.952v-47.05
			c0-4.159-3.37-7.529-7.529-7.529s-7.529,3.37-7.529,7.529v47.05c0,1.045-0.85,1.894-1.895,1.894h-52.596v-89.353
			c0-4.158-3.37-7.529-7.529-7.529s-7.529,3.371-7.529,7.529v89.353h-72.785l-19.661-116.163l8.05-12.116l4.717,3.35
			c7.064,5.02,16.942,2.539,20.805-5.206l28.17-56.456l64.094,24.822c2.216,0.945,36.159,16.106,36.159,56.405v21.285
			C441.529,417.02,444.899,420.391,449.059,420.391z M362.238,105.98c13.313,3.366,23.195,15.446,23.195,29.792
			c0,14.344-9.881,26.425-23.195,29.791V105.98z M337.9,96.58h9.28c0,9.001,0,68.666,0,78.383h-9.28
			C337.9,170.56,337.9,99.235,337.9,96.58z M337.893,190.02h9.287v7.675c0,8.749-5.812,16.16-13.777,18.59
			C336.274,208.048,337.861,199.217,337.893,190.02z M149.648,165.563c-13.314-3.366-23.194-15.447-23.194-29.791
			c0-14.345,9.881-26.425,23.194-29.792V165.563z M173.986,130.076v44.886h-9.28v-0.938c0-6.612,0-70.537,0-77.445h9.28V130.076z
			 M189.044,189.737c0-9.642,0-51.945,0-58.88c38.331,2.559,78.619-8.843,110.984-29.83c13.613,14.626,20.841,22.116,22.814,24.659
			c0,68.86,1.579,74.969-5.993,91.444h-35.441c-2.967-7.176-10.036-12.241-18.271-12.241h-9.471
			c-10.901,0-19.769,8.868-19.769,19.77s8.868,19.77,19.769,19.77h9.471c8.236,0,15.304-5.065,18.272-12.241h25.863
			c-12.548,14.835-30.852,23.374-50.231,23.383c-0.012,0-0.023,0-0.035,0c-0.011,0-0.021,0-0.032,0
			C214.685,255.554,189.044,222.323,189.044,189.737z M267.847,224.659c0,2.598-2.113,4.712-4.711,4.712h-9.471
			c-2.598,0-4.711-2.114-4.711-4.712s2.113-4.712,4.711-4.712h9.471C265.734,219.948,267.847,222.062,267.847,224.659z
			 M255.971,324.959l-34.264-42.294v-19.334c10.777,4.776,22.871,7.299,35.275,7.299c0.008,0,0.015,0,0.022,0
			c0.007,0,0.013,0,0.02,0c11.508-0.004,22.829-2.466,33.153-7.122v19.226L255.971,324.959z M255.972,346.21l19.33,13.728
			l-7.725,11.627h-23.211l-7.724-11.627L255.972,346.21z M211.797,294.422l33.267,41.063c-11.806,8.384-32.217,22.883-33.245,23.613
			l-27.048-54.21L211.797,294.422z M140.022,496.943V407.59c0-4.158-3.37-7.529-7.529-7.529s-7.529,3.371-7.529,7.529v89.353H72.449
			c-1.09,0-1.978-0.886-1.978-1.977V391.577c0-40.398,34.11-55.533,36.149-56.402l64.043-24.828l28.171,56.459
			c0,0,0,0.001,0.001,0.001c3.86,7.735,13.736,10.227,20.805,5.205l4.717-3.35l8.049,12.116l-19.661,116.164H140.022z
			 M283.924,496.942h-55.906l18.672-110.319h18.562L283.924,496.942z M300.125,359.099c-6.11-4.339-5.517-3.921-33.28-23.638
			l33.259-41.054l27.069,10.482L300.125,359.099z"/>
	</g>
</g>
<g>
</g>
<g>
</g>
<g>
</g>
<g>
</g>
<g>
</g>
<g>
</g>
<g>
</g>
<g>
</g>
<g>
</g>
<g>
</g>
<g>
</g>
<g>
</g>
<g>
</g>
<g>
</g>
<g>
</g>
</svg>
