<svg id="Capa_1" enable-background="new 0 0 512 512" height="512" viewBox="0 0 512 512" width="512" xmlns="http://www.w3.org/2000/svg"><path d="m445.432 243.893h-5.711v-60.173c0-101.303-82.417-183.72-183.721-183.72s-183.721 82.417-183.721 183.72v60.172h-5.711c-19.589 0-35.526 15.937-35.526 35.526v197.056c0 19.589 15.937 35.526 35.526 35.526h378.864c19.589 0 35.526-15.937 35.526-35.526v-197.056c0-19.588-15.937-35.525-35.526-35.525zm-22.972 120.064h43.498v24.985h-43.498zm0-15v-24.738c0-.136.111-.247.247-.247h43.25v24.985zm0 54.984h43.498v24.985h-43.25c-.136 0-.247-.111-.247-.247v-24.738zm-335.181-220.221c0-93.032 75.688-168.72 168.721-168.72s168.721 75.688 168.721 168.72v60.172h-33.059v-60.172c0-74.805-60.858-135.663-135.663-135.663s-135.663 60.858-135.663 135.663v60.172h-33.057zm289.384 60.173h-241.326v-60.172c0-66.534 54.129-120.663 120.663-120.663s120.663 54.129 120.663 120.663zm-287.123 145.048h-43.498v-24.985h43.498zm-43.498 15h43.498v24.738c0 .136-.111.247-.247.247h-43.25v-24.985zm43.498-54.984h-43.498v-24.985h43.25c.136 0 .247.111.247.247v24.738zm355.892 148.043h-378.864c-11.318 0-20.526-9.208-20.526-20.526v-32.547h43.25c8.407 0 15.247-6.84 15.247-15.247v-104.462c0-8.407-6.84-15.247-15.247-15.247h-43.25v-29.553c0-11.318 9.208-20.526 20.526-20.526h378.864c11.318 0 20.526 9.208 20.526 20.526v29.553h-43.25c-8.407 0-15.247 6.84-15.247 15.247v104.462c0 8.407 6.84 15.247 15.247 15.247h43.25v32.547c0 11.318-9.208 20.526-20.526 20.526z"/><path d="m373.676 386.485c-4.142 0-7.5 3.358-7.5 7.5v25.567c0 5.169-4.205 9.374-9.374 9.374h-201.604c-5.169 0-9.374-4.205-9.374-9.374v-25.567c0-4.142-3.358-7.5-7.5-7.5s-7.5 3.358-7.5 7.5v25.567c0 13.44 10.934 24.374 24.374 24.374h201.604c13.44 0 24.374-10.934 24.374-24.374v-25.567c0-4.142-3.358-7.5-7.5-7.5z"/><path d="m356.802 311.966h-201.604c-13.44 0-24.374 10.934-24.374 24.374v22.573c0 4.142 3.358 7.5 7.5 7.5s7.5-3.358 7.5-7.5v-22.573c0-5.169 4.205-9.374 9.374-9.374h201.604c5.169 0 9.374 4.205 9.374 9.374v22.573c0 4.142 3.358 7.5 7.5 7.5s7.5-3.358 7.5-7.5v-22.573c0-13.44-10.934-24.374-24.374-24.374z"/><path d="m338.415 402.288c-5.109.029-10.591.049-14.795.053v-56.29c0-4.142-3.358-7.5-7.5-7.5s-7.5 3.358-7.5 7.5v63.737c0 3.652 2.63 6.773 6.229 7.392 1.676.287 20.216.128 23.65.108 4.142-.023 7.481-3.4 7.458-7.542-.024-4.143-3.375-7.497-7.542-7.458z"/><path d="m203.908 371.413c-7.915-2.92-15.278-6.101-17.453-7.054-3.145-2.462-2.452-8.294 3.624-10.125 9.24-2.781 17.758 3.959 17.991 4.146 3.17 2.632 7.876 2.214 10.531-.945 2.665-3.171 2.255-7.902-.915-10.567-.594-.5-14.75-12.172-31.934-6.996-20.377 6.137-20.303 31.546-6.054 37.901.369.165 9.139 4.069 19.018 7.713 15.65 5.772 7.449 16.855-2.943 16.855-6.472 0-12.705-2.614-16.673-6.992-2.78-3.068-7.523-3.303-10.594-.521-3.069 2.781-3.302 7.524-.521 10.594 6.764 7.463 17.151 11.919 27.787 11.919 27.804 0 39.071-34.518 8.136-45.928z"/><path d="m271.944 371.413c-7.915-2.92-15.278-6.101-17.453-7.054-3.145-2.462-2.452-8.294 3.624-10.125 9.241-2.781 17.758 3.959 17.991 4.146 3.17 2.632 7.876 2.214 10.531-.945 2.665-3.171 2.255-7.902-.915-10.567-.594-.5-14.75-12.172-31.934-6.996-20.377 6.137-20.303 31.546-6.054 37.901.369.165 9.139 4.069 19.018 7.713 15.648 5.771 7.451 16.855-2.944 16.855-6.472 0-12.704-2.614-16.672-6.992-2.78-3.068-7.523-3.303-10.594-.521-3.069 2.781-3.302 7.524-.521 10.594 6.764 7.463 17.151 11.919 27.787 11.919 27.914 0 38.993-34.546 8.136-45.928z"/></svg>