<svg id="Layer_1" enable-background="new 0 0 512 512" height="512" viewBox="0 0 512 512" width="512" xmlns="http://www.w3.org/2000/svg"><path d="m61.784 84.917c-3.882.564-7.046 3.232-8.258 6.961-1.212 3.73-.221 7.748 2.588 10.487l20.768 20.242-4.903 28.582c-.664 3.866.895 7.699 4.068 10.005 3.172 2.305 7.301 2.604 10.774.78l25.669-13.495 25.67 13.495c3.666 1.808 7.257 1.548 10.773-.78 3.173-2.306 4.732-6.139 4.068-10.004l-4.902-28.583 20.766-20.241c2.809-2.738 3.802-6.755 2.59-10.486-1.213-3.731-4.377-6.4-8.259-6.963l-28.698-4.17-12.834-26.006c-1.736-3.517-5.251-5.702-9.173-5.702s-7.438 2.185-9.173 5.702l-12.836 26.005zm41.036 4.713 9.669-19.592 9.671 19.596c1.491 3.017 4.37 5.107 7.701 5.592l21.621 3.142-15.646 15.251c-2.412 2.351-3.511 5.737-2.941 9.054l3.692 21.534-19.337-10.167c-1.491-.784-3.125-1.175-4.76-1.175s-3.271.391-4.76 1.175l-19.338 10.167 3.694-21.539c.567-3.317-.533-6.7-2.943-9.049l-15.647-15.251 21.621-3.142c3.332-.484 6.21-2.574 7.703-5.596z"/><path d="m314.895 91.88c-1.213-3.731-4.377-6.4-8.259-6.963l-28.698-4.17-12.834-26.006c-1.736-3.517-5.25-5.702-9.173-5.702s-7.438 2.185-9.173 5.702l-12.834 26.006-28.698 4.17c-3.883.564-7.047 3.232-8.259 6.963-1.212 3.73-.219 7.748 2.589 10.485l20.767 20.242-4.902 28.583c-.664 3.866.895 7.699 4.068 10.005 3.172 2.305 7.301 2.604 10.774.78l25.669-13.495 25.67 13.495c3.666 1.808 7.257 1.548 10.773-.78 3.173-2.306 4.732-6.139 4.068-10.004l-4.902-28.583 20.766-20.241c2.807-2.739 3.8-6.757 2.588-10.487zm-35.618 21.739c-2.412 2.351-3.511 5.737-2.941 9.054l3.692 21.534-19.338-10.167c-1.491-.784-3.125-1.175-4.76-1.175s-3.27.391-4.76 1.175l-19.338 10.167 3.692-21.531c.57-3.319-.528-6.705-2.941-9.057l-15.646-15.251 21.621-3.142c3.331-.484 6.209-2.574 7.703-5.596l9.669-19.592 9.671 19.596c1.492 3.018 4.37 5.108 7.701 5.592l21.621 3.142z"/><path d="m458.334 91.878c-1.213-3.73-4.377-6.398-8.258-6.961l-28.698-4.17-12.834-26.006c-1.736-3.517-5.251-5.702-9.173-5.702-3.923 0-7.438 2.185-9.173 5.702l-12.834 26.006-28.698 4.17c-3.883.564-7.047 3.232-8.259 6.963-1.212 3.73-.219 7.748 2.589 10.485l20.767 20.242-4.902 28.583c-.664 3.866.895 7.699 4.068 10.005 3.173 2.305 7.3 2.604 10.774.78l25.669-13.495 25.67 13.495c3.666 1.808 7.257 1.548 10.773-.78 3.173-2.306 4.732-6.139 4.068-10.005l-4.903-28.582 20.768-20.243c2.807-2.739 3.798-6.757 2.586-10.487zm-35.617 21.741c-2.409 2.349-3.51 5.731-2.942 9.054l3.693 21.534-19.338-10.167c-2.982-1.568-6.539-1.567-9.521 0l-19.338 10.167 3.692-21.531c.57-3.319-.528-6.705-2.941-9.057l-15.646-15.251 21.622-3.142c3.33-.484 6.209-2.575 7.702-5.596l9.669-19.592 9.671 19.596c1.492 3.018 4.37 5.108 7.701 5.592l21.621 3.142z"/><path d="m46.271 212.123h25.956l34.741 46.373c2.921 3.9 9.067 3.917 12.001 0l34.741-46.373h311.877c25.514 0 46.271-20.757 46.271-46.271v-119.51c0-25.514-20.757-46.271-46.271-46.271h-335.623c-9.672 0-9.672 14.996 0 14.996h335.624c17.245 0 31.276 14.03 31.276 31.276v119.51c0 17.245-14.03 31.276-31.276 31.276h-315.629c-2.362 0-4.585 1.112-6 3.003l-30.99 41.365-30.99-41.365c-1.416-1.89-3.639-3.003-6-3.003h-29.708c-17.245 0-31.276-14.03-31.276-31.276v-119.511c0-17.245 14.03-31.276 31.276-31.276h45.703c9.672 0 9.672-14.996 0-14.996h-45.703c-25.514 0-46.271 20.758-46.271 46.272v119.51c0 25.514 20.757 46.271 46.271 46.271z"/><path d="m112.469 286.991c-62.016 0-112.469 50.454-112.469 112.47s50.453 112.469 112.469 112.469 112.469-50.453 112.469-112.469-50.453-112.47-112.469-112.47zm-61.048 188.397c3.984-30.525 30.014-53.434 60.947-53.434 15.491 0 30.289 5.779 41.667 16.272 10.681 9.85 17.471 23.016 19.305 37.303-16.692 13.384-37.862 21.404-60.872 21.404-23.09.001-44.328-8.076-61.047-21.545zm30.456-98.921c0-16.813 13.679-30.492 30.492-30.492s30.492 13.678 30.492 30.492-13.679 30.492-30.492 30.492-30.492-13.679-30.492-30.492zm104.26 86.755c-3.75-13.723-11.287-26.2-21.936-36.019-7.028-6.482-15.106-11.513-23.816-14.941 10.624-8.334 17.47-21.276 17.47-35.795 0-25.082-20.406-45.488-45.488-45.488s-45.488 20.406-45.488 45.488c0 14.518 6.845 27.46 17.468 35.794-22.077 8.684-39.259 27.353-45.699 50.783-14.733-17.081-23.654-39.309-23.654-63.583 0-53.747 43.726-97.473 97.473-97.473s97.473 43.726 97.473 97.473c.002 24.357-8.978 46.657-23.803 63.761z"/><path d="m279.923 349.474h205.943c33.462 0 33.561-51.986 0-51.986h-205.943c-33.462.001-33.561 51.986 0 51.986zm0-36.99h205.943c14.149 0 14.172 21.994 0 21.994h-205.943c-14.149 0-14.172-21.994 0-21.994z"/><path d="m280.423 425.453h205.943c33.462 0 33.561-51.986 0-51.986h-12.496c-9.672 0-9.672 14.996 0 14.996h12.497c14.149 0 14.172 21.994 0 21.994h-205.944c-14.149 0-14.172-21.994 0-21.994h155.457c9.672 0 9.672-14.996 0-14.996h-155.457c-33.462.001-33.561 51.986 0 51.986z"/><path d="m486.866 449.447h-205.943c-33.462 0-33.561 51.986 0 51.986h24.993c9.672 0 9.672-14.996 0-14.996h-24.993c-14.149 0-14.172-21.994 0-21.994h205.943c14.149 0 14.172 21.994 0 21.994h-143.96c-9.672 0-9.672 14.996 0 14.996h143.96c33.462 0 33.562-51.986 0-51.986z"/></svg>