<svg class="size-6 !size-5 " fill="none" viewBox="8.684 8.684 12.73 12.63" xmlns="http://www.w3.org/2000/svg"><path d="M21.2171 13.8808H15.0004V16.2953H18.5855C18.417 16.7501 18.1629 17.1685 17.837 17.5277C17.6291 17.7619 17.3971 17.9719 17.1374 18.1485L19.1432 19.7577C19.9691 19.0423 20.5946 18.1243 20.9581 17.0938C21.3216 16.0634 21.4107 14.9561 21.2164 13.8808" fill="#278BE6"></path><path d="M17.1374 18.1493C16.5081 18.5812 15.7628 18.8123 14.9996 18.812C13.8693 18.812 12.8654 18.3104 12.1672 17.5278C11.8446 17.1672 11.5941 16.7481 11.4293 16.2932L9.80309 17.5278L9.3717 17.8563C9.89846 18.8967 10.7032 19.7708 11.6967 20.3815C12.6902 20.9922 13.8334 21.3156 14.9996 21.3159C15.3976 21.3159 15.7857 21.2747 16.1632 21.2045C17.2682 20.9978 18.2975 20.4984 19.1439 19.7585L17.1374 18.1493Z" fill="#15B457"></path><path d="M11.1888 15.0009C11.1888 14.5326 11.2853 14.0891 11.44 13.6741L9.39585 12.0975C8.92829 12.9939 8.68416 13.9899 8.6842 15.0009C8.6842 15.5997 8.7736 16.1773 8.92899 16.7264C9.00703 17.0017 9.1014 17.2699 9.21421 17.5282C9.26317 17.6403 9.31709 17.7481 9.37172 17.8567L9.80382 17.5289L11.4286 16.2943C11.3742 16.1499 11.3287 16.0023 11.2924 15.8523C11.2257 15.5733 11.191 15.2877 11.1888 15.0009Z" fill="#F0BB2F"></path><path d="M16.1632 8.79371C15.7795 8.72163 15.39 8.68505 14.9996 8.68445C12.7377 8.68445 10.7588 9.87643 9.64347 11.6644C9.57252 11.7779 9.50015 11.8915 9.43629 12.0099C9.4221 12.0376 9.40933 12.0667 9.39514 12.0951L11.4393 13.6738C11.5322 13.4247 11.6464 13.187 11.7869 12.9657C12.0211 12.5967 12.3198 12.2789 12.6625 12.0099C13.3095 11.5034 14.1141 11.1883 14.9996 11.1883C15.4076 11.1883 15.7943 11.265 16.1632 11.3834C16.596 11.5232 16.9933 11.7354 17.3424 12.0099C17.3992 12.0539 17.463 12.0894 17.5156 12.137L17.6433 12.0092L19.2865 10.3617C18.4144 9.55436 17.3316 9.01046 16.1632 8.793" fill="#EC3838"></path></svg>