<svg class="size-6 !size-5 " fill="none" viewBox="9 7 12.63 15.24" xmlns="http://www.w3.org/2000/svg"><path d="M20.1892 17.0243C20.6082 17.617 21.0884 18.0002 21.63 18.1739C21.395 18.8994 21.022 19.6555 20.5111 20.4424C19.7243 21.6277 18.9477 22.2204 18.1813 22.2204C17.8952 22.2204 17.4711 22.1233 16.9091 21.9292C16.3879 21.735 15.9332 21.6379 15.5449 21.6379C15.1566 21.6379 14.7274 21.7401 14.2574 21.9445C13.7669 22.1386 13.3633 22.2357 13.0465 22.2357C12.1268 22.2357 11.2225 21.454 10.3335 19.8906C9.4445 18.3476 9 16.8301 9 15.3383C9 13.9588 9.33721 12.8296 10.0116 11.9508C10.7065 11.0721 11.5648 10.6327 12.5867 10.6327C12.8115 10.6327 13.0618 10.6608 13.3377 10.717C13.6136 10.7732 13.8997 10.8779 14.1961 11.0312C14.5129 11.2049 14.7734 11.325 14.9778 11.3914C15.1822 11.4578 15.3405 11.491 15.4529 11.491C15.5858 11.491 15.7902 11.4604 16.0661 11.399C16.342 11.3377 16.6179 11.2253 16.8937 11.0618C17.1901 10.8983 17.4455 10.7757 17.6601 10.694C17.8747 10.6122 18.0944 10.5713 18.3192 10.5713C19.0345 10.5713 19.6783 10.7655 20.2505 11.1538C20.5571 11.3582 20.8687 11.6596 21.1855 12.0581C20.7154 12.4669 20.3731 12.8245 20.1585 13.1311C19.76 13.7033 19.5608 14.3266 19.5608 15.001C19.5608 15.747 19.7702 16.4214 20.1892 17.0243ZM17.1083 9.86627C16.7507 10.2035 16.4237 10.4232 16.1274 10.5254C16.0252 10.556 15.8949 10.5841 15.7365 10.6097C15.5781 10.6352 15.3967 10.6582 15.1924 10.6786C15.2026 9.77942 15.4376 9.00282 15.8975 8.34883C16.3573 7.69485 17.1134 7.24524 18.1659 7C18.1864 7.10218 18.2017 7.17371 18.2119 7.21459V7.38319C18.2119 7.75106 18.1251 8.1649 17.9514 8.62473C17.7674 9.07434 17.4864 9.48819 17.1083 9.86627Z" fill="white"></path></svg>