<svg class="ss-icon" height="24" width="24" fill="none" viewBox="0 0 24 24" xmlns="http://www.w3.org/2000/svg" style="flex-shrink: 0;"><path d="M5.5 9C5.77614 9 6 9.22386 6 9.5V20.5C6 20.7761 5.77614 21 5.5 21H3.5C3.22386 21 3 20.7761 3 20.5V9.5C3 9.22386 3.22386 9 3.5 9H5.5ZM19 3C20.1046 3 21 3.89543 21 5V19C21 20.1046 20.1046 21 19 21H8C7.72386 21 7.5 20.7761 7.5 20.5V5C7.5 3.89543 8.39543 3 9.5 3H19ZM11.4268 10.2188H10.3291V15.4482H11.4268V16.7373H12.2324V15.4482H13.3291V10.2188H12.2324V9.0293H11.4268V10.2188ZM16.2178 7.26367V8.45312H15.1201V13.6826H16.2178V14.9717H17.0234V13.6826H18.1201V8.45312H17.0234V7.26367H16.2178Z" fill="currentColor"></path></svg>