<svg xmlns="http://www.w3.org/2000/svg" fill="none" viewBox="0 0 24 24" class="ss-icon" height="24" style="flex-shrink:0" width="24"><g fill="currentColor"><path fill-rule="evenodd" d="M7.5 5a2 2 0 0 1 2-2H19a2 2 0 0 1 2 2v14a2 2 0 0 1-2 2H8a.5.5 0 0 1-.5-.5zm8.374 7.051 2.777-2.911-1.302-1.243-2.138 2.241-1.246-1.26a.9.9 0 0 0-1.287.006l-2.739 2.833 1.294 1.251 2.1-2.17 1.25 1.265a.9.9 0 0 0 1.291-.012M18.25 15h-8v2h8z" clip-rule="evenodd"></path><path d="M3.5 9a.5.5 0 0 0-.5.5v11a.5.5 0 0 0 .5.5h2a.5.5 0 0 0 .5-.5v-11a.5.5 0 0 0-.5-.5z"></path></g></svg>