<svg class="ss-icon" height="24" width="24" fill="none" viewBox="0 0 24 24" xmlns="http://www.w3.org/2000/svg" style="flex-shrink: 0;"><path d="M3.5 9C3.22386 9 3 9.22386 3 9.5V20.5C3 20.7761 3.22386 21 3.5 21H5.5C5.77614 21 6 20.7761 6 20.5V9.5C6 9.22386 5.77614 9 5.5 9H3.5Z" fill="currentColor"></path><path d="M19 3C20.1046 3 21 3.89543 21 5V19C21 20.1046 20.1046 21 19 21H8C7.72386 21 7.5 20.7761 7.5 20.5V5C7.5 3.89543 8.39543 3 9.5 3H19ZM11.0352 8.60352C10.8144 8.6037 10.6357 8.78311 10.6357 9.00391V13.0215C10.6359 15.0175 12.254 16.6357 14.25 16.6357C16.246 16.6357 17.8641 15.0174 17.8643 13.0215V9.00391C17.8643 8.78299 17.6848 8.60352 17.4639 8.60352H16.6582C16.4373 8.60352 16.2578 8.78299 16.2578 9.00391V13.0215C16.2576 14.1303 15.3588 15.0292 14.25 15.0293C13.1411 15.0293 12.2424 14.1303 12.2422 13.0215V9.00391C12.2422 8.78299 12.0627 8.60352 11.8418 8.60352H11.0352Z" fill="currentColor"></path></svg>