<svg class="ss-icon" height="16" width="16" fill="none" viewBox="0 0 16 16" xmlns="http://www.w3.org/2000/svg" style="flex-shrink: 0;"><path d="M10.002 1.59961C11.1065 1.59961 12.002 2.49504 12.002 3.59961C12.002 4.05052 11.8514 4.46528 11.5996 4.7998H13.9248C14.6315 4.80005 15.2041 5.37331 15.2041 6.08008V7.36035H13.6045V13.1201C13.6044 13.8269 13.031 14.4003 12.3242 14.4004H3.68457C2.97771 14.4004 2.4044 13.827 2.4043 13.1201V7.36035H0.804688V6.08008C0.804688 5.37327 1.37723 4.8 2.08398 4.7998H4.40527C4.15346 4.46526 4.00195 4.05058 4.00195 3.59961C4.00195 2.49516 4.89755 1.59981 6.00195 1.59961C7.10652 1.59961 8.00195 2.49504 8.00195 3.59961C8.00195 2.49516 8.89755 1.59981 10.002 1.59961ZM7.20703 12.7998H8.80664V8H7.20703V12.7998Z" fill="currentColor"></path></svg>