<svg class="ss-icon  text-always_white!" height="20" width="20" fill="none" viewBox="0 0 22 26" xmlns="http://www.w3.org/2000/svg" style="flex-shrink: 0;"><g clip-path="url(#clip0_1276_9105)"><path d="M5.3784 0H0.728217C0.326657 0 0 0.326657 0 0.728217V6.90558C0 7.30714 0.326657 7.63379 0.728217 7.63379H6.10662V0.728217C6.10662 0.326657 5.77996 0 5.3784 0Z" fill="#F68F15"></path><path d="M6.10662 7.63379V13.0122C6.10662 13.4138 6.43328 13.7404 6.83484 13.7404H12.2403C13.9277 13.7404 15.2946 15.1074 15.2946 16.7948C15.2946 18.4821 13.9277 19.8491 12.2403 19.8491H7.63379C6.79114 19.8491 6.10662 19.1667 6.10662 18.3219V14.4707C6.10662 14.0691 5.77996 13.7425 5.3784 13.7425H0.728217C0.326657 13.7425 0 14.0691 0 14.4707V19.1209C0 19.5225 0.326657 19.8491 0.728217 19.8491H4.57944C5.4221 19.8491 6.10662 20.5336 6.10662 21.3763V25.2275C6.10662 25.6291 6.43328 25.9557 6.83484 25.9557H11.8762C17.136 25.9557 21.4013 21.6925 21.4013 16.4307C21.4013 11.5724 17.4626 7.63379 12.6044 7.63379H6.10662Z" fill="currentColor"></path></g><defs><clipPath id="clip0_1276_9105"><rect fill="currentColor" height="25.9537" width="21.3992"></rect></clipPath></defs></svg>