<svg class="ss-icon text-[#FC5B6F]" height="16" width="16" fill="none" viewBox="0 0 16 16" xmlns="http://www.w3.org/2000/svg" style="flex-shrink: 0;"><path clip-rule="evenodd" d="M6.73536 1.94434C6.84938 1.56745 7.0304 1.46509 7.52443 1.81153C9.358 3.09075 10.4757 4.64618 10.8779 6.47754C10.9421 6.77887 11.2252 6.78253 11.2988 6.47754C11.4048 6.0388 11.4551 5.58773 11.4492 5.13575C11.4493 4.7687 11.7313 4.76901 11.9248 5.03614C15.1501 10.3024 12.1574 13.8977 9.70021 14.3857C9.32859 14.4589 9.16906 14.2441 9.16896 13.8369C9.16896 12.6365 8.57268 11.5289 7.65821 10.8066C7.33648 10.5518 7.17367 10.6488 7.19728 11.0205C7.28278 12.3722 6.99832 13.3982 6.34279 14.0977C6.15362 14.3368 5.82284 14.399 5.56349 14.2441C1.71195 12.1544 2.04285 7.90241 4.5547 5.26367C6.00364 3.73631 6.53821 2.58481 6.73536 1.94434Z" fill="currentColor" fill-rule="evenodd"></path></svg>