<svg class="ss-icon" height="24" width="24" fill="none" viewBox="0 0 24 24" xmlns="http://www.w3.org/2000/svg" style="flex-shrink: 0;"><path d="M3.5 9C3.22386 9 3 9.22386 3 9.5V20.5C3 20.7761 3.22386 21 3.5 21H5.5C5.77614 21 6 20.7761 6 20.5V9.5C6 9.22386 5.77614 9 5.5 9H3.5Z" fill="currentColor"></path><path d="M19 3C20.1046 3 21 3.89543 21 5V19C21 20.1046 20.1046 21 19 21H8C7.72386 21 7.5 20.7761 7.5 20.5V5C7.5 3.89543 8.39543 3 9.5 3H19ZM14.25 7.5C11.7647 7.5 9.75 9.51472 9.75 12C9.75 14.4853 11.7647 16.5 14.25 16.5C15.5492 16.5 16.7198 15.9496 17.541 15.0699L16.3718 13.9784C15.8426 14.5453 15.0892 14.9 14.25 14.9C12.6484 14.9 11.35 13.6016 11.35 12C11.35 10.3984 12.6484 9.1 14.25 9.1C15.0892 9.1 15.8426 9.4547 16.3718 10.0216L17.541 8.93012C16.7198 8.05039 15.5492 7.5 14.25 7.5Z" fill="currentColor"></path></svg>