<svg class="ss-icon" height="24" width="24" fill="none" viewBox="0 0 24 24" xmlns="http://www.w3.org/2000/svg" style="flex-shrink: 0;"><path clip-rule="evenodd" d="M9.13458 12.8887C9.3656 12.8887 9.56678 13.0469 9.62091 13.2715L10.9266 18.707C11.0021 19.0215 10.7636 19.3242 10.4402 19.3242H2.65216C2.32974 19.3242 2.09101 19.0228 2.16486 18.709L3.44415 13.2744C3.49729 13.0486 3.69847 12.8887 3.93048 12.8887H9.13458ZM19.9061 12.8887C20.1371 12.8887 20.3383 13.0469 20.3924 13.2715L21.6981 18.707C21.7736 19.0215 21.5351 19.3242 21.2117 19.3242H13.4236C13.1012 19.3242 12.8625 19.0228 12.9363 18.709L14.2156 13.2744C14.2688 13.0486 14.4699 12.8887 14.702 12.8887H19.9061ZM14.5867 4.67578C14.8178 4.67579 15.0189 4.83402 15.0731 5.05859L16.3787 10.4941C16.4543 10.8086 16.2158 11.1113 15.8924 11.1113H8.10333C7.78104 11.1112 7.54318 10.8099 7.617 10.4961L8.89532 5.06152C8.94847 4.83566 9.1506 4.67578 9.38263 4.67578H14.5867Z" fill="currentColor" fill-rule="evenodd"></path></svg>